<svg width="235" height="204" viewBox="0 0 235 204" fill="none" xmlns="http://www.w3.org/2000/svg">
<g clip-path="url(#clip0_71_7607)">
<path d="M59.4498 99.3165C58.4712 100.396 58.3206 102.03 59.1579 103.251C60.0961 104.618 61.9101 104.907 63.2798 103.998C64.6165 103.11 65.1342 101.346 64.2511 99.9533C63.3643 98.5552 61.6494 98.1508 60.1769 98.7803C59.5306 99.0566 59.3855 100.003 59.7105 100.555C60.1016 101.22 60.8434 101.298 61.4915 101.02C61.3978 101.06 61.6659 101.057 61.7063 101.071C61.8458 101.123 62.0001 101.253 62.0478 101.328C62.1213 101.443 62.1323 101.459 62.09 101.556C62.0441 101.659 61.9487 101.769 61.8275 101.849C61.5631 102.027 61.3997 101.941 61.3226 101.818C61.2197 101.657 61.2161 101.641 61.2087 101.465C61.2014 101.302 61.2271 101.223 61.2914 101.152C62.4132 99.9167 60.5771 98.0776 59.4516 99.3183L59.4498 99.3165Z" fill="#00E024"></path>
<path d="M13.5261 26.1959C25.9967 24.4464 38.1459 28.7194 48.9457 34.6064C50.4164 35.408 51.731 33.1681 50.2585 32.3666C38.7684 26.1044 26.061 21.8387 12.8339 23.6943C12.1326 23.7931 11.7635 24.6752 11.9251 25.29C12.1234 26.0385 12.8339 26.2929 13.5261 26.1959Z" fill="#00E024"></path>
<path d="M51.0647 19.9978C51.2574 22.8598 51.946 25.6396 52.5262 28.4394C52.864 30.0736 55.3739 29.3819 55.0361 27.7495C54.5036 25.1784 53.8445 22.6238 53.6664 19.9959C53.5544 18.3398 50.9508 18.327 51.0647 19.9959V19.9978Z" fill="#00E024"></path>
<path d="M48.2993 11.8215C48.0294 13.0274 48.4609 14.2718 49.491 14.9873C50.5026 15.6919 51.9825 15.5821 52.7995 14.625C53.7433 13.5197 53.4495 11.9349 52.4691 10.9486C51.4666 9.94027 49.9004 9.97687 48.8851 10.9211C47.6586 12.0612 49.5001 13.893 50.7248 12.7548C50.7028 12.7749 50.6165 12.7786 50.6091 12.7932C50.6826 12.6596 50.7909 12.8097 50.6165 12.7694C50.5816 12.7621 50.7248 12.8719 50.6312 12.7712C50.6385 12.7786 50.8772 13.1317 50.8129 13.1629C50.8074 13.1647 50.7835 13.0695 50.7927 13.0585C50.835 12.9872 50.8754 12.9158 50.9176 12.8444C50.8166 12.9542 50.7891 12.9799 50.8331 12.9213C50.8515 12.9158 50.9084 12.8755 50.9304 12.8646C50.9561 12.8554 50.9837 12.8572 51.0094 12.8682C51.0755 12.8829 51.07 12.881 50.9929 12.8627C50.9194 12.8408 50.9121 12.8408 50.9727 12.8627C51.0498 12.8975 51.0277 12.8829 50.9066 12.817C50.9929 12.9304 50.9139 12.8335 50.8827 12.7786C51.0057 12.9945 50.6917 12.4894 50.8368 12.698C50.8074 12.559 50.7964 12.5333 50.8056 12.6212C50.8093 12.6889 50.8111 12.6834 50.8056 12.6047C50.7964 12.5352 50.8533 12.3046 50.8074 12.5059C50.9598 11.8233 50.5999 11.1023 49.8986 10.9102C49.2449 10.7308 48.4517 11.1298 48.2975 11.816L48.2993 11.8215Z" fill="#00E024"></path>
<path d="M105.654 75.6C104.722 78.958 109.159 81.5182 111.596 78.9617C112.828 77.6697 112.389 75.6366 111.117 74.5331C109.708 73.3144 107.817 73.4352 106.411 74.5569C105.862 74.9943 105.952 75.9349 106.411 76.3906C106.952 76.9304 107.7 76.8298 108.251 76.3906C108.88 75.8873 110.21 76.8389 109.543 77.3074C108.871 77.7795 107.968 76.9999 108.164 76.2917C108.61 74.6814 106.101 73.9933 105.654 75.6018V75.6Z" fill="#00E024"></path>
<path d="M91.9243 0.233987C83.258 6.30401 75.9156 14.1528 70.4515 23.1983C68.9037 25.7621 67.5156 28.4174 66.2836 31.1459C65.9935 31.7901 66.1037 32.533 66.75 32.921C67.3044 33.2522 68.2427 33.093 68.5309 32.4562C72.7319 23.1526 78.8111 14.7621 86.405 7.91256C88.5698 5.95998 90.8502 4.14647 93.2371 2.47387C94.5976 1.52229 93.2976 -0.728579 91.9243 0.233987Z" fill="#00E024"></path>
<path d="M81.6056 37.8932C84.7471 34.6889 88.3385 32.0208 92.3172 29.9346C93.8008 29.1569 92.4862 26.9188 91.0045 27.6948C86.8439 29.8761 83.0506 32.7089 79.7659 36.0577C78.5945 37.2527 80.4324 39.0882 81.6056 37.8914V37.8932Z" fill="#00E024"></path>
<path d="M32.0118 67.7729C35.1331 64.2594 39.3909 61.6041 44.2124 61.5327C45.8851 61.5089 45.8906 58.914 44.2124 58.9396C38.7262 59.0202 33.745 61.917 30.172 65.9393C29.0649 67.1855 30.8991 69.0265 32.0118 67.7729Z" fill="#00E024"></path>
<path d="M2.1572 67.4674C9.71812 58.2974 20.1011 51.6016 31.6114 48.54C34.8502 47.6781 38.1533 47.1108 41.4949 46.8564C43.1547 46.7302 43.1676 44.1353 41.4949 44.2634C29.0703 45.2095 17.1725 50.1888 7.6654 58.1986C4.99392 60.4495 2.53726 62.9419 0.315621 65.6356C-0.740117 66.9148 1.09044 68.7612 2.15536 67.4693L2.1572 67.4674Z" fill="#00E024"></path>
<path d="M96.173 20.9607C94.0891 22.7211 95.4165 27.684 98.558 26.7763C100.076 26.3371 100.829 24.5035 100.49 23.0523C100.13 21.5133 98.8041 20.6624 97.3077 20.4958C96.6081 20.419 96.0059 21.1473 96.0059 21.7933C96.0059 22.5582 96.6063 23.0121 97.3077 23.0907C97.5611 23.1182 97.8236 23.2902 97.9246 23.5263C98.0348 23.7843 97.9375 23.8996 97.9007 24.1521C97.8622 24.2162 97.8163 24.2729 97.7612 24.3241C97.8622 24.2747 97.9577 24.2692 98.0458 24.3077C98.0513 24.2253 97.741 23.7459 97.7245 23.5464C97.6969 23.2133 97.763 23.0084 98.0164 22.7943C99.2962 21.7128 97.4472 19.8865 96.1767 20.9607H96.173Z" fill="#00E024"></path>
<path d="M24.5353 67.127C23.3749 68.0036 22.8682 69.3376 23.2372 70.765C23.6154 72.2271 25.0072 73.4972 26.599 73.1202C28.2019 72.7414 29.1604 70.9096 28.7968 69.3632C28.4278 67.7858 26.9424 66.9788 25.4295 66.8598C23.7605 66.7281 23.7678 69.323 25.4295 69.4529C25.6939 69.473 26.0905 69.5773 26.2282 69.839C26.3053 69.9854 26.2741 70.6003 26.0115 70.5966C25.6975 70.593 25.6333 69.5243 25.8463 69.3632C26.4063 68.9405 26.6982 68.2451 26.3126 67.5882C25.9895 67.0392 25.0953 66.697 24.5316 67.1233L24.5353 67.127Z" fill="#00E024"></path>
<path d="M24.4068 113.198C25.0677 106.094 25.905 98.9922 29.3384 92.6129C32.1219 87.4432 36.1723 82.9342 41.0636 79.6622C43.8691 77.7864 46.9114 76.3188 50.1411 75.3325C51.7384 74.8457 51.0573 72.3404 49.4489 72.8309C37.1032 76.6006 27.2178 86.9381 23.8816 99.3545C22.668 103.871 22.2347 108.554 21.8032 113.196C21.649 114.858 24.2525 114.847 24.4049 113.196L24.4068 113.198Z" fill="#00E024"></path>
<path d="M62.5437 77.5158C58.8716 82.9087 57.7406 89.7949 59.3655 96.0918C59.7823 97.7077 62.294 97.0233 61.8754 95.4019C60.4121 89.7363 61.4972 83.659 64.7911 78.8242C65.7348 77.4389 63.4801 76.1396 62.5437 77.5158Z" fill="#00E024"></path>
<path d="M72.9616 78.385C82.0758 85.5493 88.5938 95.6984 91.4912 106.889C92.3064 110.034 92.826 113.241 93.039 116.483C93.1473 118.141 95.7508 118.152 95.6407 116.483C94.8438 104.396 90.0407 92.7356 82.1235 83.5473C79.9148 80.9836 77.4618 78.643 74.8013 76.5514C74.245 76.114 73.5051 76.0207 72.9616 76.5514C72.5044 76.9979 72.4108 77.9531 72.9616 78.385Z" fill="#00E024"></path>
<path d="M82.5476 66.2247C85.9517 66.1387 89.3851 66.9421 92.5854 68.04C96.0335 69.2222 99.5 70.9186 102.059 73.5629C103.224 74.767 105.063 72.9316 103.899 71.7293C101.086 68.8214 97.3059 66.9512 93.5255 65.6245C90.048 64.4057 86.2528 63.5365 82.5476 63.6316C80.8768 63.6737 80.8695 66.2686 82.5476 66.2247Z" fill="#00E024"></path>
<path d="M83.1517 54.4874C95.0384 44.1755 111.624 39.3754 127.241 41.4378C131.253 41.9667 135.259 43.0573 138.741 45.1618C140.176 46.0292 141.485 43.7875 140.053 42.9219C133.344 38.8685 124.941 38.1219 117.266 38.519C108.974 38.9491 100.844 40.9163 93.3933 44.5945C89.0327 46.7466 84.9805 49.4714 81.312 52.6556C80.047 53.7535 81.894 55.5817 83.1517 54.4892V54.4874Z" fill="#00E024"></path>
<path d="M95.2202 84.6017C103.497 88.9899 111.201 94.381 118.164 100.638C125.045 106.821 131.213 113.788 136.603 121.296C142.055 128.891 146.746 137.016 150.73 145.465C154.725 153.936 157.99 162.743 160.61 171.73C163.245 180.765 165.222 189.986 166.572 199.297C166.737 200.432 166.889 201.566 167.034 202.705C167.122 203.405 167.569 203.993 168.336 204.002C168.971 204.009 169.726 203.4 169.638 202.705C168.433 193.223 166.623 183.825 164.12 174.598C161.611 165.34 158.414 156.267 154.511 147.502C150.651 138.833 146.068 130.475 140.707 122.636C135.388 114.86 129.312 107.579 122.473 101.084C115.59 94.5476 107.933 88.7941 99.6764 84.0893C98.639 83.4982 97.5906 82.9236 96.5349 82.3654C95.0568 81.5822 93.7404 83.8203 95.2221 84.6053L95.2202 84.6017Z" fill="#00E024"></path>
<path d="M56.6354 146.478C58.3246 140.858 61.165 135.619 64.9932 131.158C66.0746 129.897 64.2441 128.054 63.1534 129.324C59.0149 134.144 55.945 139.742 54.1182 145.82C53.6371 147.419 56.1544 148.078 56.6354 146.478Z" fill="#00E024"></path>
<path d="M68.7644 121.43C67.5654 120.654 65.7367 121.069 64.8242 122.107C63.7446 123.333 63.9006 125.145 65.2006 126.144C66.4362 127.093 68.2319 127.106 69.2509 125.836C70.1947 124.661 70.6427 122.255 68.8984 121.523C68.2503 121.252 67.5012 121.351 67.1248 122.01C66.809 122.562 66.9614 123.505 67.6132 123.778C67.4424 123.706 67.5911 123.516 67.4406 123.796C67.3763 123.915 67.2698 124.1 67.2276 124.219C67.1762 124.367 67.0825 124.25 67.2588 124.25C67.1927 124.25 67.1229 124.252 67.066 124.23C66.9283 124.177 66.7814 124.144 66.719 124.032C66.5629 123.761 67.2606 123.54 67.481 123.682C68.0703 124.065 68.9223 123.778 69.2546 123.196C69.62 122.555 69.3574 121.81 68.7662 121.428L68.7644 121.43Z" fill="#00E024"></path>
<path d="M51.6284 112.285C50.4294 111.509 48.6007 111.925 47.6882 112.962C46.6086 114.188 46.7646 116 48.0646 116.999C49.3003 117.949 51.0959 117.962 52.1149 116.692C53.0587 115.517 53.5067 113.111 51.7624 112.379C51.1143 112.108 50.3652 112.207 49.9888 112.865C49.673 113.418 49.8254 114.36 50.4772 114.633C50.3064 114.562 50.4551 114.371 50.3046 114.651C50.2403 114.77 50.1338 114.955 50.0916 115.074C50.0402 115.222 49.9465 115.105 50.1228 115.105C50.0567 115.105 49.9869 115.107 49.93 115.085C49.7923 115.032 49.6454 114.999 49.583 114.887C49.4269 114.617 50.1246 114.395 50.345 114.538C50.9344 114.92 51.7863 114.633 52.1186 114.051C52.484 113.411 52.2214 112.666 51.6302 112.283L51.6284 112.285Z" fill="#00E024"></path>
<path d="M33.8166 146.511C39.7692 139.707 46.5185 133.619 53.9399 128.44C55.3023 127.489 54.0262 125.227 52.6547 126.184C45.0405 131.498 38.0873 137.694 31.9769 144.678C30.8826 145.929 32.7132 147.772 33.8166 146.511Z" fill="#00E024"></path>
<path d="M60.6546 120.804C60.796 119.188 59.4501 117.921 57.8674 117.912C56.1617 117.901 54.6929 119.329 54.546 121.001C54.3881 122.818 55.8698 124.33 57.6893 124.317C59.4997 124.306 60.5573 122.818 60.6656 121.144C60.7721 119.475 58.1704 119.484 58.0639 121.144C58.0418 121.473 57.9739 121.704 57.7114 121.726C57.3295 121.759 57.0724 121.501 57.1458 121.138C57.2046 120.842 57.4763 120.547 57.7866 120.505C57.9005 120.491 58.1135 120.602 58.0382 120.527C57.9592 120.45 58.1116 120.558 58.1024 120.613C58.1024 120.617 58.0731 120.58 58.0529 120.804C57.9923 121.503 58.6937 122.101 59.3546 122.101C60.1093 122.101 60.594 121.504 60.6564 120.804H60.6546Z" fill="#00E024"></path>
<path d="M12.0979 147.258C18.201 143.918 23.5953 139.484 29.0338 135.193C34.777 130.66 40.3495 125.924 45.7236 120.961C46.9538 119.826 45.1104 117.993 43.8839 119.127C38.5923 124.013 33.1135 128.689 27.4584 133.152C22.1118 137.372 16.8129 141.72 10.8126 145.003C9.34196 145.808 10.6309 148.063 12.0979 147.26V147.258Z" fill="#00E024"></path>
<path d="M67.3046 61.3151C61.4163 55.9825 53.2954 53.3126 45.3801 54.2825C45.4958 55.1316 45.6115 55.9807 45.7253 56.8298C51.5842 54.4472 57.2374 58.9947 62.7456 60.3415C64.0456 60.6599 65.4997 60.4001 65.8578 58.9123C66.1772 57.5874 65.2647 56.1417 64.6974 55.009C63.3772 52.3665 61.778 49.8613 60.8545 47.0394C59.7804 43.7546 59.4866 40.3161 59.9034 36.8904H57.3017C57.0612 43.3722 60.3128 49.6325 65.6595 53.2906C66.5959 53.9311 67.9013 52.8679 67.5708 51.8267C66.1387 47.3158 67.7599 42.0235 71.6505 39.2291C71.0134 38.7405 70.3763 38.2519 69.7392 37.7651C68.1804 44.3659 62.5987 51.6784 67.0145 58.3999C67.9288 59.7907 70.1835 58.4933 69.2618 57.0915C65.4355 51.2704 70.8978 44.1774 72.2491 38.455C72.486 37.4504 71.3164 36.2884 70.3378 36.9911C65.5199 40.4497 63.2579 46.829 65.0627 52.5166C65.6999 52.028 66.337 51.5394 66.9741 51.0526C62.3711 47.9032 59.6996 42.4297 59.9052 36.8922C59.9309 36.1859 59.2883 35.6021 58.6035 35.5948C57.8305 35.5875 57.3861 36.1987 57.3017 36.8922C56.6003 42.6603 58.049 48.0697 60.7608 53.1369C61.4053 54.3392 62.0718 55.5305 62.6667 56.7603C62.8319 57.1007 63.0082 57.4465 63.1477 57.7997C63.1753 57.8711 63.2726 58.3304 63.3166 58.3505C63.3956 58.2791 63.4745 58.2078 63.5517 58.1346C63.8363 57.99 63.884 57.9113 63.693 57.9003C63.6545 57.8491 63.3405 57.8162 63.2763 57.7997C62.8999 57.7027 62.5271 57.5911 62.1581 57.4721C59.4609 56.6084 56.9363 55.2817 54.2355 54.4307C51.2757 53.4993 47.9708 53.1333 45.0349 54.3282C44.4272 54.5753 44.0086 55.0602 44.1022 55.752C44.1793 56.3266 44.7375 56.9561 45.3801 56.8756C52.6216 55.988 60.0503 58.2444 65.4648 63.1469C66.7023 64.2668 68.5476 62.4387 67.3046 61.3132V61.3151Z" fill="#00E024"></path>
<path d="M70.8628 59.5014C65.2426 63.875 60.2669 68.966 55.9613 74.6279C55.0653 75.8064 57.0097 77.2613 58.0048 76.1999C62.6831 71.2077 67.6681 65.8916 74.3862 63.7616C75.9763 63.2583 75.2969 60.7531 73.694 61.26C66.5132 63.5365 61.1739 69.0191 56.1651 74.3644C56.8463 74.8878 57.5275 75.413 58.2086 75.9364C62.371 70.4629 67.2733 65.5604 72.7026 61.335C73.2607 60.9013 73.1506 59.9589 72.7026 59.5014C72.1609 58.9506 71.4136 59.0732 70.8628 59.5014Z" fill="#00E024"></path>
<path d="M142.167 105.652C146.845 106.795 151.604 108.77 156.396 108.702C158.644 108.671 160.915 108.144 162.378 106.554C164.179 104.596 164.447 101.832 164.321 99.1936C164.027 93.1144 161.322 87.1231 157.876 81.7979C154.334 76.3244 149.931 71.3085 145.189 66.6969C142.525 64.1075 139.756 61.6133 136.684 59.474C133.181 57.0328 129.29 55.1022 125.392 53.3912C122.018 51.9107 117.642 51.2757 115.404 54.3025C113.124 57.3879 116.157 61.1302 118.47 63.6793C122.811 68.461 128.163 72.304 133.326 76.2201C136.135 78.352 138.972 80.4492 141.856 82.4841C149.247 87.6977 156.997 92.7082 165.334 96.2528C171.404 98.8331 180.142 101.492 185.088 96.7085C188.056 93.8391 188.715 89.3337 188.652 85.2767C188.557 79.0676 186.401 72.8054 183.254 67.1306C180.082 61.4101 175.811 56.0849 170.819 51.6088C169.62 50.5346 168.373 49.5062 167.086 48.5308C165.672 47.4566 164.179 46.3147 162.54 45.612C159.363 44.2523 156.372 46.075 156.187 49.1841C155.992 52.4561 159.503 55.2852 161.827 57.4867C164.2 59.7321 166.717 61.8384 169.331 63.8166C174.739 67.9047 180.612 71.3634 186.779 74.1651C198.853 79.6513 212.396 82.475 225.036 80.5132C228.107 80.0374 231.087 79.256 233.954 78.2258C235.527 77.6603 234.141 75.3362 232.582 75.898C221.667 79.8233 209.145 79.1243 197.489 75.5595C185.718 71.9581 174.535 65.5678 165.349 57.3311C164.225 56.3246 163.131 55.2889 162.07 54.222C160.961 53.1094 159.44 51.843 158.985 50.3589C158.719 49.4897 158.963 48.4228 159.72 47.9232C160.933 47.1217 162.611 48.4155 163.665 49.131C168.619 52.4927 172.972 56.8041 176.531 61.4888C180.276 66.4206 183.285 71.9252 184.857 77.6951C186.141 82.4073 186.603 87.7014 184.883 92.1043C184.457 93.1968 183.708 94.3131 182.758 95.1073C181.951 95.7825 180.798 96.3077 179.707 96.5365C178.286 96.8348 177.192 96.8311 175.602 96.6591C173.958 96.4798 172.59 96.154 170.909 95.6435C163.1 93.2718 155.822 88.825 148.98 84.3306C143.406 80.667 138.058 76.6996 132.755 72.6718C129.663 70.3221 126.558 67.9779 123.701 65.3592C122.185 63.9684 120.738 62.5045 119.418 60.9453C118.45 59.8016 117.125 58.2516 117.317 56.7547C117.488 55.4316 118.986 54.7564 120.266 54.6703C121.948 54.5569 123.744 55.3438 125.282 56.0611C128.936 57.763 132.524 59.5582 135.818 61.9079C141.008 65.6081 145.624 70.3916 149.718 75.1606C153.666 79.7575 157.29 84.832 159.527 90.3109C160.584 92.9022 161.361 95.605 161.578 98.3134C161.748 100.431 161.798 103.079 160.404 104.645C157.939 107.414 152.383 105.862 148.92 104.927C146.88 104.376 144.86 103.728 142.813 103.229C141.109 102.811 140.448 105.234 142.17 105.655L142.167 105.652Z" fill="#00E024"></path>
<path d="M224.489 86.8176C227.123 83.2894 230.452 80.2608 234.359 78.0118C235.518 77.3438 234.996 75.814 233.647 75.5669C229.059 74.727 224.457 74.0517 219.847 73.543C218.108 73.3509 218.16 75.9128 219.9 76.105C224.509 76.6137 229.112 77.289 233.7 78.1289C233.463 77.3146 233.225 76.4984 232.988 75.6841C228.669 78.171 225.043 81.4558 222.129 85.3573C221.169 86.6438 223.532 88.0968 224.489 86.8176Z" fill="#00E024"></path>
<path d="M113.7 119.975C112.165 119.227 111.559 117.353 111.155 115.817C110.709 114.115 110.427 112.282 110.483 110.518C110.526 109.266 110.95 107.039 112.569 107.021C114.681 106.997 115.075 109.894 114.864 111.424C114.425 114.626 113.003 117.602 112.184 120.711C111.758 122.327 114.268 123.016 114.694 121.401C115.602 117.951 117.126 114.694 117.505 111.114C117.782 108.486 116.414 105.202 113.599 104.545C110.841 103.899 108.8 105.968 108.166 108.463C107.606 110.666 107.937 113.091 108.368 115.288C108.866 117.827 109.868 120.989 112.386 122.217C113.884 122.947 115.206 120.711 113.698 119.977L113.7 119.975Z" fill="#00E024"></path>
<path d="M112.995 127.714C113.443 126.599 114.939 126.169 116.015 126.063C116.662 125.999 119.616 125.999 119.276 127.28C119.01 128.281 116.673 128.292 115.914 128.292C115.52 128.292 113.085 128.248 113.083 127.675C113.081 126.006 110.478 126.003 110.482 127.675C110.485 130.345 113.722 130.869 115.806 130.885C118.02 130.903 121.239 130.356 121.816 127.789C122.515 124.672 118.9 123.373 116.454 123.443C113.933 123.516 111.462 124.583 110.483 127.022C110.221 127.677 110.772 128.44 111.392 128.618C112.13 128.828 112.733 128.36 112.993 127.712L112.995 127.714Z" fill="#00E024"></path>
<path d="M106.632 124.921C104.415 124.757 102.201 124.575 99.9868 124.389C98.0369 124.226 96.0521 123.928 94.093 124.129C90.4833 124.502 87.0205 126.199 85.1716 129.425C84.2756 130.988 83.7321 132.909 84.5069 134.631C85.2927 136.377 87.1196 137.184 88.941 137.343C92.3157 137.636 95.7069 135.976 98.3729 134.069C101.362 131.932 103.967 129.275 107.239 127.544C108.719 126.76 107.406 124.521 105.926 125.304C101.12 127.847 97.6109 132.732 92.2937 134.326C90.9221 134.737 89.2036 135.089 87.843 134.465C86.3595 133.784 86.6331 132.219 87.2702 131.006C88.6821 128.321 91.5519 126.901 94.5098 126.687C96.3881 126.552 98.2958 126.841 100.167 126.998C102.32 127.178 104.476 127.355 106.632 127.514C108.302 127.639 108.295 125.044 106.632 124.921Z" fill="#00E024"></path>
<path d="M112.018 132.867C110.898 134.062 110.015 135.427 109.183 136.831C108.295 138.332 107.289 139.73 106.262 141.139C104.529 143.52 102.396 146.634 102.774 149.745C103.121 152.611 106.159 153.546 108.372 151.994C110.651 150.395 111.752 147.807 112.358 145.178C112.769 143.393 112.96 141.558 113.076 139.733C113.188 137.956 113.256 136.119 114.053 134.489C114.783 132.994 112.54 131.678 111.805 133.18C109.508 137.885 111.359 143.723 108.434 148.252C108.01 148.909 105.71 151.454 105.344 149.487C105.139 148.374 105.779 146.945 106.26 145.979C106.859 144.777 107.623 143.67 108.409 142.584C109.367 141.263 110.349 139.966 111.181 138.56C111.983 137.206 112.773 135.856 113.856 134.701C114.998 133.482 113.162 131.643 112.017 132.867H112.018Z" fill="#00E024"></path>
<path d="M119.407 133.601C120.115 137.127 121.518 140.485 123.308 143.598C124.715 146.047 126.9 150.517 130.399 149.792C133.469 149.156 134.143 145.494 133.491 142.93C132.821 140.295 130.972 138.061 128.923 136.342C126.534 134.34 123.799 132.819 120.901 131.681C119.342 131.068 118.667 133.575 120.209 134.183C124.046 135.691 128.293 138.203 130.315 141.927C131.064 143.305 131.894 146.036 130.197 147.112C129.226 147.728 128.236 146.427 127.744 145.737C126.925 144.588 126.174 143.378 125.477 142.152C123.828 139.257 122.574 136.183 121.917 132.913C121.588 131.277 119.078 131.97 119.407 133.603V133.601Z" fill="#00E024"></path>
</g>
<defs>
<clipPath id="clip0_71_7607">
<rect width="235" height="204" fill="white"></rect>
</clipPath>
</defs>
</svg>